# xmcd
#
# Track frame offsets:
#	150
#	22377
#	37813
#	55454
#	79457
#	98713
#	114860
#	128108
#	151807
#	166985
#
# Disc length: 2462 seconds
#
# Revision: 1
# Processed by: cddbd v1.5.2PL0 Copyright (c) Steve Scherf et al.
# Submitted via: audiograbber 1.83.01
#
DISCID=79099c0a
DTITLE=Warfield Within - Inner Bomb Exploding
DYEAR=2010
DGENRE=Death Metal
TTITLE0=New Blood
TTITLE1=Tortured Souls
TTITLE2=Scapegoat
TTITLE3=Warfield Within
TTITLE4=Pride Of Creation
TTITLE5=My Own Worst Enemy
TTITLE6=Cynic Hell Reality
TTITLE7=A Future Dark
TTITLE8=War Of Attrition
TTITLE9=Dialog With God
EXTD=
EXTT0=
EXTT1=
EXTT2=
EXTT3=
EXTT4=
EXTT5=
EXTT6=
EXTT7=
EXTT8=
EXTT9=
PLAYORDER=
